<svg xmlns="http://www.w3.org/2000/svg" viewBox="0 0 128 128">
  <path fill="#43853d" d="M64 0C28.7 0 0 28.7 0 64s28.7 64 64 64 64-28.7 64-64S99.3 0 64 0zm0 12c28.7 0 52 23.3 52 52s-23.3 52-52 52-52-23.3-52-52 23.3-52 52-52z"/>
  <path fill="#43853d" d="M78 53v-7c0-1.7-1.3-3-3-3H53c-1.7 0-3 1.3-3 3v36c0 1.7 1.3 3 3 3h22c1.7 0 3-1.3 3-3v-7h3V95c0 1.7-1.3 3-3 3H50c-1.7 0-3-1.3-3-3V33c0-1.7 1.3-3 3-3h28c1.7 0 3 1.3 3 3v20h-3z"/>
  <path fill="#43853d" d="M98 75.5L82 88V63l16 12.5z"/>
  <circle fill="#43853d" cx="56" cy="40" r="4"/>
  <circle fill="#43853d" cx="56" cy="64" r="4"/>
  <circle fill="#43853d" cx="56" cy="88" r="4"/>
</svg> 