<svg xmlns="http://www.w3.org/2000/svg" viewBox="0 0 128 128">
  <path d="M64 0c3.6 0 6.5 2.9 6.5 6.5S67.6 13 64 13s-6.5-2.9-6.5-6.5S60.4 0 64 0zm0 115c3.6 0 6.5 2.9 6.5 6.5s-2.9 6.5-6.5 6.5-6.5-2.9-6.5-6.5 2.9-6.5 6.5-6.5zm58.5-51.5c0 3.6-2.9 6.5-6.5 6.5s-6.5-2.9-6.5-6.5 2.9-6.5 6.5-6.5 6.5 2.9 6.5 6.5zm-115 0c0 3.6-2.9 6.5-6.5 6.5S.5 67.1.5 63.5 3.4 57 7 57s6.5 2.9 6.5 6.5zm106.9-30.2c1.8 3.1.8 7-2.3 8.8-3.1 1.8-7 .8-8.8-2.3-1.8-3.1-.8-7 2.3-8.8 3.1-1.8 7.1-.8 8.8 2.3zm-98.8 60.4c1.8 3.1.8 7-2.3 8.8-3.1 1.8-7 .8-8.8-2.3-1.8-3.1-.8-7 2.3-8.8 3.1-1.8 7-.8 8.8 2.3zm81.7-96.9c3.1 1.8 4.1 5.7 2.3 8.8-1.8 3.1-5.7 4.1-8.8 2.3-3.1-1.8-4.1-5.7-2.3-8.8 1.8-3.1 5.7-4.1 8.8-2.3zm-64.6 133.4c3.1 1.8 4.1 5.7 2.3 8.8-1.8 3.1-5.7 4.1-8.8 2.3-3.1-1.8-4.1-5.7-2.3-8.8 1.8-3.1 5.7-4.1 8.8-2.3zM30.1 44.6c2.5-2.5 6.6-2.5 9.2 0 2.5 2.5 2.5 6.6 0 9.2-2.5 2.5-6.6 2.5-9.2 0-2.5-2.5-2.5-6.7 0-9.2zm58.6 58.6c2.5-2.5 6.6-2.5 9.2 0 2.5 2.5 2.5 6.6 0 9.2-2.5 2.5-6.6 2.5-9.2 0-2.5-2.5-2.5-6.6 0-9.2zM30.1 112.4c-2.5-2.5-2.5-6.6 0-9.2 2.5-2.5 6.6-2.5 9.2 0 2.5 2.5 2.5 6.6 0 9.2-2.5 2.5-6.7 2.5-9.2 0zM88.7 44.6c-2.5-2.5-2.5-6.6 0-9.2 2.5-2.5 6.6-2.5 9.2 0 2.5 2.5 2.5 6.6 0 9.2-2.5 2.5-6.6 2.5-9.2 0zM64 28.3c19.4 0 35.2 15.7 35.2 35.2 0 19.4-15.8 35.2-35.2 35.2-19.4 0-35.2-15.7-35.2-35.2 0-19.4 15.7-35.2 35.2-35.2z" fill="#FF4154"/>
  <circle cx="64" cy="63.5" r="13.6" fill="#FF4154"/>
</svg> 