<svg xmlns="http://www.w3.org/2000/svg" viewBox="0 0 128 128">
  <path fill="#764ABC" d="M64.8 68.4c3.7 0 6.5-3 6.5-6.6s-2.9-6.6-6.5-6.6-6.5 3-6.5 6.6 2.9 6.6 6.5 6.6zm-32.2 25.2c2 2.1 4.2 3.6 7.6 3.6 6.3 0 10.2-5.1 14.2-10.9 2.8-4.1 5.3-8.8 7-12.9 1.8 3.4 3.5 6.8 6.1 9.5 6.5 6.9 14.9 10.2 23.8 10.2 8.8 0 16-3.4 22.8-8.7 8.2-6.4 11.7-15.4 12.7-22.7 1.3-9.8-1.8-17.8-7.7-23.9-5.2-5.3-12.2-7.9-19.8-7.9-8.2 0-15 1.7-21.1 3.2-1.4.4-2.7.7-3.9 1-1.2.3-1.7.4-2.3.4v-.7c1.6-5.1 3-10 3-15.6.1-8.2-6.3-12.5-12-12.5-5.6 0-11.2 4.2-11.2 11.9 0 6.3 4.1 14.2 8.5 23 .1.2.2.4.3.7-2.9.5-5.8 1.2-8.6 2.2-14.3 5.2-23.7 13.7-27.1 24.7-1.9 6.3-.9 12.8 2.9 17.9zm65-43.5c6 0 11 2.2 14.1 5.3 4.7 4.7 5.8 11.1 5 17.8-.9 6.8-4.9 14.1-11 18.9-5.9 4.6-12.2 7.5-19.8 7.5-7.5 0-14.8-2.9-20.3-8.6-1.7-1.8-3.2-4-4.6-6.6 1.7-3.1 3.4-6.5 5-10 3.7-8.1 7.5-16.5 12.7-16.5.5 0 1.1.1 1.6.2 2.5.5 5.1 1 7.8 1.5 5.7 1.2 11.5 2.5 18.5 2.5zm-75.9 41.5c2.5-8.5 10.3-15.9 22.8-20.5 2-.7 3.9-1.3 5.8-1.7-1.7 3.1-3.3 6.3-4.8 9.4-8.5 17.2-12.9 20.8-16.9 20.8-1.5 0-2.8-.7-3.9-1.8-2.5-2.7-3.3-6.6-3-6.2zM67.5 24.6c.7 0 2.8 0 2.8 4.6 0 3.4-.9 6.9-1.9 10.2-.8-1.7-1.4-3.3-2.1-4.9-3-7-4.3-9.9-4.3-12.4-.1-2.5 2.1-2.9 2.8-2.9 1.7 0 2.7 0 2.7 5.4z"></path>
</svg> 