<svg xmlns="http://www.w3.org/2000/svg" viewBox="0 0 128 128">
  <path fill="#00618A" d="M64 67.6c-1.2 0-2.2-2.1-2.2-4.6s1-4.6 2.2-4.6c1.2 0 2.2 2.1 2.2 4.6s-1 4.6-2.2 4.6zM64 0C28.7 0 0 9.4 0 21v86c0 11.6 28.7 21 64 21s64-9.4 64-21V21C128 9.4 99.3 0 64 0zM110 94.2c0 5.7-20.6 14.1-46 14.1s-46-8.4-46-14.1V79.9c10.2 5.9 27.6 9.5 46 9.5s35.8-3.6 46-9.5v14.3zm0-34.1c0 5.7-20.6 14.1-46 14.1s-46-8.4-46-14.1V45.8c10.2 5.9 27.6 9.5 46 9.5s35.8-3.6 46-9.5v14.3zM64 42.1c-25.4 0-46-8.4-46-14.1s20.6-14.1 46-14.1 46 8.4 46 14.1-20.6 14.1-46 14.1z"/>
</svg> 