<svg xmlns="http://www.w3.org/2000/svg" viewBox="0 0 128 128">
  <path fill="#8ED6FB" d="M24.4 81.9l-12.7-7.2V41.2l12.7-7.2 13.1 7.4v33.3zm40 8.2l-36.3-20V39.8l36.3-20.7v71z"/>
  <path fill="#1C78C0" d="M89.6 38v33.3l12.7 7.2 12.7-7.2V41.2l-12.7-7.4zM64 97.8v-71L27.7 46.4v20l36.3 20V98zm0-71v71l36.3-20.5v-20L64 26.9z"/>
  <path fill="#1C78C0" d="M103 81.9L63.6 104.1 24.3 81.9 11.6 74.7v3.7l52 29.5 52-29.5v-3.7z"/>
  <path fill="#8ED6FB" d="M63.6 23.6l-52 29.5v3.7l52-29.5 52 29.5v-3.7z"/>
</svg> 